HIERARCHY
ROOT hip
{
  OFFSET 0 0 0
  CHANNELS 6 Xposition Yposition Zposition Zrotation Yrotation Xrotation
  JOINT abdomen
  {
    OFFSET 0 20.6881 -0.73152
    CHANNELS 3 Zrotation Xrotation Yrotation
    JOINT chest
    {
      OFFSET 0 11.7043 -0.48768
      CHANNELS 3 Zrotation Xrotation Yrotation
      JOINT neck
      {
        OFFSET 0 22.1894 -2.19456
        CHANNELS 3 Zrotation Xrotation Yrotation
        JOINT head
        {
          OFFSET -0.24384 7.07133 1.2192
          CHANNELS 3 Zrotation Xrotation Yrotation
          JOINT leftEye
          {
            OFFSET 4.14528 8.04674 8.04672
            CHANNELS 3 Zrotation Xrotation Yrotation
            End Site
            {
              OFFSET 1 0 0
            }
          }
          JOINT rightEye
          {
            OFFSET -3.6576 8.04674 8.04672
            CHANNELS 3 Zrotation Xrotation Yrotation
            End Site
            {
              OFFSET 1 0 0
            }
          }
        }
      }
      JOINT rCollar
      {
        OFFSET -2.68224 19.2634 -4.8768
        CHANNELS 3 Zrotation Xrotation Yrotation
        JOINT rShldr
        {
          OFFSET -8.77824 -1.95073 1.46304
          CHANNELS 3 Zrotation Xrotation Yrotation
          JOINT rForeArm
          {
            OFFSET -28.1742 -1.7115 0.48768
            CHANNELS 3 Zrotation Xrotation Yrotation
            JOINT rHand
            {
              OFFSET -22.5879 0.773209 7.07136
              CHANNELS 3 Zrotation Xrotation Yrotation
              JOINT rThumb1
              {
                OFFSET -1.2192 -0.487915 3.41376
                CHANNELS 3 Zrotation Xrotation Yrotation
                JOINT rThumb2
                {
                  OFFSET -3.37035 -0.52449 3.41376
                  CHANNELS 3 Zrotation Xrotation Yrotation
                  End Site
                  {
                    OFFSET -1.78271 -1.18214 1.43049
                  }
                }
              }
              JOINT rIndex1
              {
                OFFSET -7.75947 0.938293 5.60832
                CHANNELS 3 Zrotation Xrotation Yrotation
                JOINT rIndex2
                {
                  OFFSET -2.54057 -0.884171 1.56538
                  CHANNELS 3 Zrotation Xrotation Yrotation
                  End Site
                  {
                    OFFSET -1.62519 -0.234802 1.16502
                  }
                }
              }
              JOINT rMid1
              {
                OFFSET -8.24714 1.18213 3.41376
                CHANNELS 3 Zrotation Xrotation Yrotation
                JOINT rMid2
                {
                  OFFSET -3.10165 -0.590103 1.0647
                  CHANNELS 3 Zrotation Xrotation Yrotation
                  End Site
                  {
                    OFFSET -2.48547 -0.328903 0.83742
                  }
                }
              }
              JOINT rRing1
              {
                OFFSET -8.82822 0.546677 1.51678
                CHANNELS 3 Zrotation Xrotation Yrotation
                JOINT rRing2
                {
                  OFFSET -2.60934 -0.819778 -0.0198488
                  CHANNELS 3 Zrotation Xrotation Yrotation
                  End Site
                  {
                    OFFSET -2.33842 -0.294052 0.168128
                  }
                }
              }
              JOINT rPinky1
              {
                OFFSET -8.27202 -0.0477905 -0.4584
                CHANNELS 3 Zrotation Xrotation Yrotation
                JOINT rPinky2
                {
                  OFFSET -1.82734 -0.647385 -0.700984
                  CHANNELS 3 Zrotation Xrotation Yrotation
                  End Site
                  {
                    OFFSET -1.69225 -0.51767 -0.607171
                  }
                }
              }
            }
          }
        }
      }
      JOINT lCollar
      {
        OFFSET 2.68224 19.2634 -4.8768
        CHANNELS 3 Zrotation Xrotation Yrotation
        JOINT lShldr
        {
          OFFSET 8.77824 -1.95073 1.46304
          CHANNELS 3 Zrotation Xrotation Yrotation
          JOINT lForeArm
          {
            OFFSET 28.1742 -1.7115 0.48768
            CHANNELS 3 Zrotation Xrotation Yrotation
            JOINT lHand
            {
              OFFSET 22.5879 0.773209 7.07136
              CHANNELS 3 Zrotation Xrotation Yrotation
              JOINT lThumb1
              {
                OFFSET 1.2192 -0.487915 3.41376
                CHANNELS 3 Zrotation Xrotation Yrotation
                JOINT lThumb2
                {
                  OFFSET 3.37035 -0.52449 3.41376
                  CHANNELS 3 Zrotation Xrotation Yrotation
                  End Site
                  {
                    OFFSET 1.78271 -1.18214 1.43049
                  }
                }
              }
              JOINT lIndex1
              {
                OFFSET 7.75947 0.938293 5.60832
                CHANNELS 3 Zrotation Xrotation Yrotation
                JOINT lIndex2
                {
                  OFFSET 2.54057 -0.884171 1.56538
                  CHANNELS 3 Zrotation Xrotation Yrotation
                  End Site
                  {
                    OFFSET 1.62519 -0.234802 1.16502
                  }
                }
              }
              JOINT lMid1
              {
                OFFSET 8.24714 1.18213 3.41376
                CHANNELS 3 Zrotation Xrotation Yrotation
                JOINT lMid2
                {
                  OFFSET 3.10165 -0.590103 1.0647
                  CHANNELS 3 Zrotation Xrotation Yrotation
                  End Site
                  {
                    OFFSET 2.48547 -0.328903 0.83742
                  }
                }
              }
              JOINT lRing1
              {
                OFFSET 8.82822 0.546677 1.51678
                CHANNELS 3 Zrotation Xrotation Yrotation
                JOINT lRing2
                {
                  OFFSET 2.60934 -0.819778 -0.0198488
                  CHANNELS 3 Zrotation Xrotation Yrotation
                  End Site
                  {
                    OFFSET 2.33842 -0.294052 0.168128
                  }
                }
              }
              JOINT lPinky1
              {
                OFFSET 8.27202 -0.0477905 -0.4584
                CHANNELS 3 Zrotation Xrotation Yrotation
                JOINT lPinky2
                {
                  OFFSET 1.82734 -0.647385 -0.700984
                  CHANNELS 3 Zrotation Xrotation Yrotation
                  End Site
                  {
                    OFFSET 1.69225 -0.51767 -0.607171
                  }
                }
              }
            }
          }
        }
      }
    }
  }
  JOINT rButtock
  {
    OFFSET -8.77824 4.35084 1.2192
    CHANNELS 3 Zrotation Xrotation Yrotation
    JOINT rThigh
    {
      OFFSET 0 -1.70687 -2.19456
      CHANNELS 3 Zrotation Xrotation Yrotation
      JOINT rShin
      {
        OFFSET 0 -36.8199 0.73152
        CHANNELS 3 Zrotation Xrotation Yrotation
        JOINT rFoot
        {
          OFFSET 0.73152 -45.1104 -5.12064
          CHANNELS 3 Zrotation Xrotation Yrotation
          End Site
          {
            OFFSET -1.1221 -3.69964 12.103
          }
        }
      }
    }
  }
  JOINT lButtock
  {
    OFFSET 8.77824 4.35084 1.2192
    CHANNELS 3 Zrotation Xrotation Yrotation
    JOINT lThigh
    {
      OFFSET 0 -1.70687 -2.19456
      CHANNELS 3 Zrotation Xrotation Yrotation
      JOINT lShin
      {
        OFFSET 0 -36.8199 0.73152
        CHANNELS 3 Zrotation Xrotation Yrotation
        JOINT lFoot
        {
          OFFSET -0.73152 -45.1104 -5.12064
          CHANNELS 3 Zrotation Xrotation Yrotation
          End Site
          {
            OFFSET 1.1221 -3.69964 12.103
          }
        }
      }
    }
  }
}
MOTION
Frames:	7
Frame Time:	0.03333
-50.783500000000004 87.4528 -53.0112 134.524848 19.464826 163.764287 -28.372214 25.913514 -128.979026 10.672012 3.172355 147.838511 8.856281 16.685938 75.79371 -31.086867 14.487267 -52.095287 0.000413 -0.0 -0.000504 0.000413 -0.0 -0.000504 -82.877487 68.299713 86.000634 34.304304 -57.910501 55.866716 -62.0465 -23.832666 46.894048 9.882051 -24.811115 4.035638 -168.317845 -5.994939 89.879452 12.03433 -57.847451 15.530421 -145.338833 -6.264808 118.676909 -164.525803 -19.783029 119.313956 -8.304713 20.652984 5.559544 -166.804743 -15.956524 144.16105 -145.123119 1.1214 -179.480534 -156.348993 63.707677 172.350231 -1.177309 -2.985655 -1.09118 15.218793 43.99225 8.720078 155.301008 -2.209411 -161.559397 36.203345 -6.938477 -18.084387 165.367854 40.672369 125.981414 6.099304 0.144653 2.21031 68.481768 37.954274 -35.659897 44.673344 2.553256 -46.182281 145.905668 -7.259622 -118.950674 163.397351 -17.72204 -119.410005 0.571018 1.648381 -0.321935 -3.171897 0.194996 0.002579 0.02301 -1.806508 0.568181 149.608731 39.766835 -164.580856 -31.49522 83.083586 -6.663766 148.086841 10.505473 142.40919 179.997714 75.749259 0.002358 115.873299 39.691138 51.694142 0.549242 24.410558 -153.248491 -170.08488 57.822599 -119.981429 -179.993795 75.749259 -0.004245 -120.099061 0.502878 180.0 -13.685267 -8.258379 -92.179984 -127.332484 -52.083154 115.032173
-54.228500000000004 87.9782 -56.150999999999996 131.221148 20.277107 162.103897 -32.864219 27.400026 96.033785 -11.557148 0.593625 -76.69953 -3.443511 9.845468 -7.098337 -10.065804 -19.015189 26.420689 -0.001297 0.0 -0.00076 -0.002091 -0.0 0.003073 -159.216212 -50.035713 170.858285 20.154445 12.187606 -25.90511 62.71765 -57.917482 -67.924847 174.819312 -1.192723 145.672874 -176.598707 -14.213016 89.690582 -161.494009 -0.214785 87.038826 -50.386825 40.825117 40.025798 3.790755 4.27214 -2.095389 78.536935 -80.9193 49.688576 -144.544557 37.19789 131.410527 -0.016251 -1.323128 -0.415997 -78.187157 78.782767 91.712879 12.251922 41.424959 10.281139 37.825258 80.975372 -2.005353 155.504097 -3.514315 -161.839164 -138.949403 -20.56733 -161.644271 -138.626937 69.593679 -122.892027 173.774039 7.607888 -141.68752 85.828971 38.630088 -47.955799 140.165117 -25.677081 -80.652861 12.271117 17.023584 -8.102331 162.851834 -12.616755 -110.281079 -6.53343 -20.414912 2.716993 -3.021647 0.39531 -0.04023 -0.000381 -0.018246 0.007561 156.576836 -32.214008 -175.636692 3.812298 -9.064625 3.559466 4.233865 -16.326185 6.126831 -179.976551 75.748289 -0.016044 112.561106 39.585375 -18.023322 -4.459025 5.519183 114.503263 -133.066536 36.340749 68.491477 179.995255 75.749014 0.002428 -125.436771 -6.123697 10.098425 14.863388 12.648743 -48.011539 117.901397 3.764394 -46.520078
-57.1852 86.89240000000001 -58.4695 129.436218 24.652243 160.520623 -26.960221 28.934049 12.793017 -4.637449 -12.583624 5.602976 4.234941 9.738618 29.374044 -25.879954 -3.360396 -8.173433 -0.003993 -0.0 0.001046 0.001657 0.0 0.001479 -28.702045 57.498709 31.0803 0.437038 -14.994469 38.658868 -42.011719 -53.284628 50.301837 -0.258861 4.428349 0.488663 -7.758561 7.438978 1.682791 -137.843645 -41.30178 114.498109 -90.225607 41.072139 75.796593 -6.087684 18.815262 -0.554501 -82.839768 61.110743 74.532701 175.074011 -56.706804 138.089241 -145.098768 -1.604738 -178.623099 -76.030185 -77.981523 -97.693567 -162.891535 73.157352 -150.761958 -26.072817 -40.44861 -26.292433 78.72817 68.390294 -81.807813 93.945758 20.466834 -107.954245 -27.737747 -63.058996 80.105399 174.752559 3.388381 -142.154175 -87.247744 -50.688499 -36.41571 160.542478 -29.045977 -127.446981 145.522896 -6.58497 -118.765933 88.41761 56.400402 -68.834508 -0.540814 -1.590004 0.294828 4.958595 21.319865 -4.409209 0.00817 -0.831457 0.260597 -10.836998 -6.940562 0.914207 1.203894 -3.047719 1.114683 147.785037 13.373751 144.095988 179.99689 75.750812 0.003208 115.858453 32.969822 -180.0 18.289693 -10.319661 100.660431 128.513852 -50.677723 -124.920946 0.001347 0.000407 0.001347 111.051086 -38.800418 103.559323 43.749968 48.307606 -59.726857 154.056038 -23.67841 -41.027208
-58.225899999999996 85.2705 -59.476099999999995 126.099623 30.073485 157.796273 -22.430257 28.784935 10.394844 -4.579697 -12.705932 9.171923 -8.144178 17.602396 -69.20502 19.803417 -15.085182 95.315039 0.001122 0.0 0.004282 -0.000274 -0.0 0.003077 -155.547852 -3.804178 161.900367 -78.561514 -65.67657 -71.843032 75.893359 0.85671 166.639485 -159.027787 56.748003 134.69826 -103.199886 36.331206 60.111162 -130.724423 -16.826188 74.146829 2.536178 -4.230964 -1.367578 -65.44796 48.486592 50.85845 -4.680741 12.53655 2.931659 -1.104766 12.231094 2.080802 -145.119218 0.309843 -179.226252 -150.35788 -35.133302 -173.022396 -0.343576 -0.890093 -0.320294 -146.895425 10.291481 -143.368425 -2.460159 -18.216397 3.668355 119.255902 12.443129 161.186285 -178.791653 14.695463 111.19641 10.263237 6.997414 1.624322 67.033746 37.763007 -34.644274 -161.5083 -54.689538 -70.359933 27.419973 30.640375 -20.097439 -85.581145 -61.344088 -37.474977 -0.047796 -0.13863 0.025892 34.36669 55.163409 -28.968303 0.015523 -1.323135 0.415964 75.577014 78.82188 -89.087465 144.860211 11.079114 141.543778 148.349358 14.094597 142.241766 0.006418 -0.001138 0.006418 -50.555074 -21.939414 -131.789401 -23.674074 -7.494684 -150.023695 120.858628 71.689534 166.924376 -0.002396 -0.000112 -0.003595 127.542434 -32.0154 56.497463 -120.259515 57.490782 -105.409062 -31.175009 -11.890282 -140.456753
-57.857499999999995 82.7692 -59.3737 123.143114 35.582099 156.510704 -21.2363 26.702078 9.088631 -2.888034 -11.921841 11.353281 -5.092029 25.904017 -119.64276 33.109845 8.336664 141.641399 0.001301 0.0 0.002785 0.003642 -0.0 -0.002055 -143.298627 38.836864 147.736039 -174.20025 74.857001 150.591835 -153.039429 55.637625 -110.121814 -4.591103 15.853783 0.270264 -93.744444 37.963594 53.547886 -54.946835 -2.866629 46.627884 -27.422448 30.638652 20.099359 -75.487038 49.374192 55.553691 -164.638193 -19.2838 144.732703 9.936695 -20.338905 -1.14091 -31.708041 -66.109036 -46.283145 -150.611489 -27.855351 178.80748 -16.660927 -29.659071 -15.921209 -154.183647 38.294542 -148.362022 -4.239206 -44.742737 8.648122 -67.740299 27.032231 44.91612 125.124564 29.173883 -45.812096 -167.801052 -46.574692 -140.753982 -2.43671 -2.418593 0.323731 -13.468219 -22.220741 12.191062 85.857112 41.978864 -71.894454 -94.570244 -65.969513 -46.338221 82.841695 61.111086 -74.531729 4.837621 21.318033 -4.614886 70.380378 -72.130906 87.279501 150.974008 -0.759298 -176.393771 13.277938 -25.410477 12.631896 -15.759969 43.907662 -8.545258 -0.004479 0.000717 -0.004479 -55.42684 -30.771475 29.966378 20.046848 19.472098 -53.258895 164.943324 -39.877459 22.190189 179.998994 75.750347 -0.0 -106.431906 -46.098007 180.0 174.531319 -56.849299 49.576581 -77.488247 37.215605 -7.0133
-57.2458 79.6388 -59.4753 125.331751 42.169371 157.356215 -13.051333 21.361138 -147.526605 7.406258 3.719751 167.30305 4.927108 9.230354 17.820952 -20.16386 -10.743739 8.244152 0.000256 -0.0 -0.001982 0.000256 -0.0 -0.001982 -83.770572 68.265608 86.902968 -79.317356 51.535263 64.276208 -156.6776 -10.273508 -85.032694 -2.131203 8.548838 0.134283 99.081575 -51.215687 44.80014 -163.454977 -27.720918 125.820055 -150.884795 -16.291967 120.977977 132.647557 -69.527615 76.090416 -160.674138 -6.667742 143.244957 -163.025342 -3.986035 142.880089 0.001092 0.063786 0.019951 -148.938278 42.728975 163.654728 -80.939895 -51.226142 -79.359453 6.555534 8.853647 1.498012 152.128836 14.11328 -157.556974 -107.84385 -37.337869 -137.670543 -108.389851 79.701454 -146.688081 176.039091 2.395801 -142.485664 162.344295 -0.033978 -89.271591 138.061301 5.144646 -67.87995 1.957214 3.105235 -1.141639 9.793798 25.445048 -8.202236 145.288066 29.524852 -132.693579 162.895087 -3.997197 -142.930022 -0.005231 1.772301 -0.55692 156.435135 -18.274679 -174.004215 152.693042 39.284646 147.935906 148.708702 13.659397 142.264977 -179.976241 75.750027 -0.019549 141.625575 17.695127 -69.019936 -36.552866 -8.058253 95.23869 65.076638 -28.293303 -14.968397 2.4e-05 -0.000517 -3.1e-05 131.72677 -13.722296 0.0 -138.469125 -5.857337 174.448385 -82.551025 85.394271 -9.58054
-56.092 76.8696 -60.2276 125.838499 48.766112 155.396317 -9.722967 25.195066 -78.994278 8.287885 -7.856732 98.175089 -6.738508 22.674068 -91.110035 30.791581 -0.976006 122.870558 0.002036 0.0 0.000434 -0.003092 -0.0 0.000138 -159.221334 -48.724919 170.567813 94.994838 64.655278 -84.694495 -131.045956 -58.822839 91.578531 150.578341 -49.661283 131.527898 -166.630929 -4.305004 89.771673 -158.57134 -1.68493 81.242667 -0.328704 0.529424 0.187242 -151.178427 1.285537 109.092488 -160.672727 -6.667813 143.245582 3.086015 0.392301 0.411327 0.005793 1.772285 0.557006 -78.396364 78.781324 91.666871 -152.873858 39.991575 -148.060345 44.111686 79.650747 -8.449627 14.148552 43.061474 -15.99681 79.975288 34.494102 -141.39377 1.675954 -16.650022 112.47728 -177.394283 -15.293885 -143.40962 172.355435 -10.035824 -89.93893 -152.201256 -41.867693 -99.351665 8.359849 12.236622 -5.301949 -22.830528 -18.217174 1.172567 149.312435 22.338483 -135.905821 155.780779 15.487097 -139.556101 74.841511 72.96141 -92.827827 -4.984867 30.116673 0.432655 86.000888 -50.497959 84.370958 84.402122 -52.873347 84.860284 -0.0 0.000431 0.000731 -50.517068 -44.309481 -60.080548 -28.662603 45.377566 163.394108 -62.431276 -24.416264 -154.351422 -0.0 -0.000774 -0.001233 121.678491 -19.345121 -0.0 -145.671715 -15.289559 -74.153597 -8.553619 29.62247 131.649185
